<?xml version="1.0" encoding="utf-8"?>
<!-- Generator: Adobe Illustrator 25.2.3, SVG Export Plug-In . SVG Version: 6.00 Build 0)  -->
<svg version="1.1" id="Layer_1" xmlns="http://www.w3.org/2000/svg" xmlns:xlink="http://www.w3.org/1999/xlink" x="0px" y="0px"
	 viewBox="0 0 500 500" style="enable-background:new 0 0 500 500;" xml:space="preserve">
<style type="text/css">
	.st0{fill:#A06A54;}
</style>
<g>
	<path class="st0" d="M209.6,140.04l0.05-14.2l2.56,0.01l-0.1,30.69h-7.37l13.2,23.05l13.24-23.38l-6.41-0.09v-30.27h2.56v14.11
		l14.05-0.25v-21.76h2.56v30.89h-6.39l13.17,23.35l13.39-23.25h-7.52v-31.59h2.55v22.34l14.11,0.17l0.24-13.63l2.55,0.05
		l-0.52,29.87h-7.02l13.63,24.17l13.01-24.42h-6.85l0.1-29.64l2.56,0.01l-0.05,13.93c15.57-0.46,29.11-11.02,32.37-25.39
		c3.94-17.4-7.72-35.21-26-39.69l-0.75-0.18l-0.19-0.75c-1.02-4.04-4.51-14.09-14.89-20.29c-14.27-8.52-29.17-2.15-30.83-1.4
		l-0.56,0.25l-0.55-0.27c-3.06-1.53-14-6.12-26.29-1.16c-14.84,5.99-18.75,20.85-19.14,22.52l-0.17,0.73l-0.72,0.21
		c-14.6,4.12-25.21,16.71-25.78,30.64C176.67,122.81,191.02,138.13,209.6,140.04z"/>
	<path class="st0" d="M169.97,166.61h-3.59c-3.5,0-6.34,2.85-6.34,6.34v12.39h9.93V166.61z"/>
	<polygon class="st0" points="282.19,185.63 282.34,185.34 282.02,185.34 	"/>
	<path class="st0" d="M345.64,172.95c0-3.5-2.85-6.34-6.34-6.34h-3.59v18.73h9.93V172.95z"/>
	<path class="st0" d="M365.02,205.47c0-8.95-7.28-16.22-16.22-16.22H156.11c-8.95,0-16.22,7.28-16.22,16.22v48.39h225.13V205.47z
		 M167.42,236.51c-7.11,0-12.89-5.78-12.89-12.89c0-7.11,5.78-12.89,12.89-12.89c7.11,0,12.89,5.78,12.89,12.89
		C180.31,230.73,174.53,236.51,167.42,236.51z M200.99,236.51c-7.11,0-12.89-5.78-12.89-12.89c0-7.11,5.78-12.89,12.89-12.89
		c7.11,0,12.89,5.78,12.89,12.89C213.88,230.73,208.1,236.51,200.99,236.51z M347.65,221.77h-90.76c-4.79,0-8.68-3.89-8.68-8.68
		c0-4.79,3.89-8.69,8.68-8.69h90.76c4.78,0,8.68,3.89,8.68,8.69C356.33,217.88,352.43,221.77,347.65,221.77z"/>
	<path class="st0" d="M339.25,290.5c-0.01,3.02,0.32,6.01,0.99,8.92c2.56,11.07,9.5,18.5,14.23,22.45l-3.58,1.17h-0.01l-4.19,1.37
		c-0.31-0.24-0.6-0.48-0.9-0.73c-3.92-3.26-7.35-7.03-10.2-11.2c-0.04-0.05-0.08-0.11-0.11-0.16c-0.31-0.46-0.62-0.92-0.92-1.4
		c-1.68-2.66-3.13-5.47-4.34-8.4c-0.24-0.6-0.48-1.2-0.7-1.8c-1.22-3.3-2.14-6.72-2.73-10.22h-1.98h-9.25h-2.11
		c-1.89,2.76-2.32,5.62-3.04,10.42c-1.33,8.89-0.03,16.21,0.86,19.78c1.21,4.83,2.36,8.2,4.87,12.42c-2.49,0.09-4.89,0.65-7.03,1.69
		c-0.93-1.81-1.82-3.67-2.68-5.53c-0.61-1.33-1.09-2.43-1.47-3.32c-1.28-2.93-1.7-3.91-2.94-3.9h-0.01
		c-2.06,0.03-2.99,3.61-4.89,11.69c-0.63,2.66-1.18,5.36-1.65,8.02c-0.1,0.04-0.2,0.08-0.31,0.13c-1.47,0.64-2.46,1.6-3.1,2.43
		c-0.19-0.18-0.4-0.35-0.61-0.5l0.11,0.03c2.11-6.39,3.68-12.92,4.69-19.43c0.95-6.11,1.35-11.87,1.19-17.11
		c-0.01-0.31-0.26-7.71-3.32-16.4c-0.04-0.12-0.09-0.26-0.15-0.4h-1.85h-36.26h-1.75c-0.28,1.79-0.74,5.19-0.02,9.44
		c0.21,1.25,0.42,1.95,0.83,3.34c0.17,0.58,0.38,1.3,0.64,2.23c0.8,2.84,1.54,5.78,2.21,8.76c-0.95,0.34-1.81,0.73-2.56,1.1
		c-2.66-6.4-4.09-7.92-5.36-7.91c-0.09,0-0.18,0.01-0.27,0.03c-0.95,0.17-1.22,0.94-1.82,2.63c-0.29,0.82-0.69,1.95-1.29,3.4
		c-0.37,0.9-0.76,1.8-1.17,2.67c-0.44-0.02-0.95-0.05-1.48-0.03c1.64-3.64,2.73-7.43,3.23-11.3c0.29-2.22,1.01-7.71-0.75-14.37
		h-1.79h-24.43h-1.84c-0.68,1.89-0.75,3.48-0.91,7.07c-0.12,2.75-0.3,6.91-0.87,13.44l-0.01,0.04c-0.16,1.83-0.45,5.25,0.76,9.47
		c0.42,1.47,0.99,2.91,1.69,4.3c-0.54,2.09-0.36,4.28,0.43,6.29l-6.15-2.8l-0.15,1.12c-0.79,6.14-1.83,12.33-3.07,18.4
		c-0.81,3.92-1.72,7.88-2.71,11.76l-0.09,0.35l12.45,15.87l0.47,3.58c-0.26,0.08-0.53,0.18-0.8,0.3c-0.93,0.4-1.69,0.9-2.3,1.42
		l-0.34-4.19l-0.16-0.19c-1.36-1.61-2.84-3.17-4.4-4.61c-2.17-2.02-4.57-3.88-7.09-5.53l-0.88-0.57l-0.42,0.9
		c-0.77,1.64-1.65,3.25-2.6,4.8c-1.28,2.08-2.73,4.1-4.32,6c-0.07-0.05-0.14-0.1-0.21-0.15c-0.56-0.39-1.16-0.69-1.8-0.91
		c4.07-6.12,6.64-12.74,7.66-19.7c0.6-4.08,0.64-8.24,0.13-12.37l-0.51,0.05l-0.39-1.14l-20.69,5.94l-3.89,18.02
		c-1.12,0.12-2.14,0.39-3.06,0.74l-0.25-2.1l-7.25,1.26l-1.38,2.8c-0.28-0.26-0.58-0.5-0.91-0.71l1.79-3.65l8.38-0.97l1.83-7.32
		c0.93-3.62,1.89-7.29,2.88-10.89c3.22-1.3,6.46-2.62,9.64-3.94c4.3-1.79,8.66-3.63,12.96-5.5l0.41-0.18l0.08-0.41
		c0.94-5.01,1.69-10.08,2.24-15.06c0.4-3.65,1.24-13.41,0.25-25.21c-0.06-0.65-0.11-1.3-0.19-1.93c-0.12-1.06-0.28-2.09-0.51-3.12
		c-0.41,0.78-0.85,1.58-1.33,2.4c-3.97,6.83-10.26,14.72-20.01,20.8c-6.01,3.74-12.63,6.35-19.69,7.76l-6.96-3.42
		c8.55-2.33,19.77-7.21,29.1-17.38c3.03-3.3,5.68-6.97,7.9-10.94h-2.25h-50.55l7.52,78.09l0.03,0.37l0.11,1.18l0.02,0.22
		c0.46,0.02,0.9,0.08,1.35,0.18c1.67,0.35,3.28,1.2,4.66,2.44l0.03-0.03c0.1,0.11,0.2,0.22,0.3,0.34l0.93,1.09l0.57-1.28
		c0.81-1.84,2.64-3.11,4.56-3.17l0.08,0c1.54-0.02,2.98,0.7,3.98,1.84v0l-0.1,0.22l0.41,0.17c0.51,0.71,0.85,1.54,0.96,2.43
		l0.23,1.89l1.31-1.47c0.96-1.07,2.05-2.04,3.25-2.88c1.79-1.26,4.03-2.82,7.12-3.1c0.6-0.05,5.92-0.4,8.98,3.29
		c1.63,1.98,1.86,4.2,1.85,5.36l-0.01,1.31l1.27-0.59c1.92-0.89,4.24-0.71,5.9,0.45c2.31,1.62,2.14,4.31,2.13,4.42l-0.03,0.39
		l0.31,0.26c2.81,2.36,3.93,5.96,2.65,8.56c-0.79,1.6-2.48,2.87-4.65,3.47c-2.66,0.74-5.6,0.36-8.08-1.04l-1.04-0.59l-0.26,1.1
		c-0.67,2.78-3.04,5-6.05,5.66c-3.12,0.68-6.4-0.41-8.34-2.77l-0.73-0.87l-0.68,0.9c-2.01,2.65-4.72,4.63-7.74,5.77
		c-2.46,0.93-5.13,1.3-7.8,1.01h0c-0.03,0-0.06,0-0.09-0.01c-1.45-0.16-2.76-0.51-3.94-0.96l0.17,1.78l3.19,33.15
		c0.35,3.6,3.34,6.32,6.96,6.32H345.3c3.6,0,6.66-2.81,6.97-6.4l3.47-41.3l0.14-1.65c-0.52,0.1-1.06,0.16-1.6,0.18l-0.84,0.03
		l0.01,0.77c0.01,1.06-0.19,3.73-2.36,5.7c-2.66,2.44-7.23,2.84-11.1,0.97l-1.19-0.57l-0.08,1.23c-0.38,5.77-4.27,10.6-9.7,12.01
		c-5.02,1.31-9.44-0.91-10.67-1.62l-0.62-0.36l-0.49,0.5c-6.76,6.93-17.22,9.26-24.33,5.41c-5.13-2.78-6.95-7.99-7.49-10.1
		l-0.17-0.67l-0.75,0.06c-2.78,0.21-5.45-0.93-6.98-2.98c-1.96-2.63-1.1-5.5-0.91-6.06l0.47-1.35l-1.5,0.33
		c-2.96,0.65-6.02-0.55-6.98-2.74c-0.75-1.71,0.09-3.47,0.48-4.13c3.87-0.42,6.55-2.36,7.99-3.71c1.17,0.35,3.48,0.78,5.92-0.3
		c2.06-0.91,3.16-2.42,3.74-3.65c1.75,2.41,4.55,4,7.71,4.29c3.64,0.33,7.21-1.17,9.42-3.83c0.85,1.99,2.52,3.57,4.66,4.3
		c3.29,1.13,7.11,0.05,9.4-2.57c2.19,1.25,5.03,1.27,7.2-0.02c1.92-1.14,3.05-3.17,3.02-5.26c0.91,0.06,2.13-0.02,3.38-0.62
		c1.41-0.67,2.21-1.67,2.63-2.4c2.57,0.31,5.13,0.06,7.46-0.84c4.31-1.66,6.68-5.1,7.78-7.22c3.64-0.91,6.74-2.78,9.04-5.2
		l0.25-2.98c-2.17,3.22-5.73,5.73-10.11,6.73l-0.41,0.09l-0.17,0.35c-0.91,1.86-3.04,5.2-7.05,6.75
		c-6.29,2.42-14.48-0.45-19.49-6.82l-1.41,0.93c1.05,1.33,2.22,2.52,3.49,3.55c-1.23,0.75-3.47,1.76-5.98,1.19
		c-3.49-0.8-5.91-4.2-5.62-7.92l0.15-1.91l-1.58,1.25c-0.5,0.4-1.57,1.07-3.06,1.11h-0.05c-2.17,0.03-3.58-1.35-3.84-1.63l-0.9-0.97
		l-0.56,1.16c-0.64,1.34-4.21,8.09-12.05,9.82c-9.15,2.02-18.38-4.14-20.94-10.92c-0.89-2.36-1.07-4.92-0.56-7.6l0.04-0.2
		l-0.07-0.19c-0.53-1.5-0.95-3.75,0.09-6c1.73-3.75,6.76-5.94,12.26-5.32l0.36,0.04l0.28-0.2c2.67-1.91,5.74-2.45,8.01-1.4
		c0.76,0.35,1.43,0.89,1.98,1.59l0.84,1.07l0.64-1.17c0.38-0.69,1.27-1.97,2.95-2.7c2.27-1,4.51-0.38,5.63,0.06
		c-0.22,0.63-0.38,1.21-0.49,1.69l1.7,0.33c0.45-1.96,1.74-5.62,5.31-8.12c5.21-3.64,13.08-3.44,19.58,0.51l0.58,0.35l0.5-0.45
		c2.63-2.36,6.46-3.19,9.75-2.11c3.89,1.28,5.33,4.64,5.58,5.3l0.2,0.54l0.63-0.01c6.54-0.05,12.38,3.4,14.84,8.48l0.24-2.88
		l4.75-56.54H341.2H339.25z M245.4,317.81c0.64,0.03,1.27,0.12,1.89,0.26l0.55,0.12l0.34-0.41c0.67-0.79,1.75-1.12,2.58-0.8
		c0.71,0.28,1,0.96,1.07,1.16l0.4,1.12l0.98-0.76c0.29-0.22,7.15-5.45,13.93-3.09c1.13,0.4,2.19,0.97,3.15,1.73
		c-1.32,0.63-2.17,1.33-2.35,1.49l1.2,1.15c0.32-0.27,3.19-2.67,7.1-1.94c2.94,0.55,5.32,2.67,6.06,5.4
		c0.81,2.98-0.56,6.21-3.41,8.02l-1.19,0.76l1.29,0.6c0.83,0.39,1.99,1.12,2.85,2.39c0.99,1.47,1.1,2.98,1.01,4.04
		c-0.16,0-0.33,0.01-0.5,0.03c-2.47,0.22-4.26,1.36-5.28,2.22c-4.6-1.64-9.76-0.84-13.29,2.09c-3.77,3.14-4.09,7.36-4.03,9.17
		c-1.74,0.41-5.76,1.76-7.83,5.71c-2.3,4.39-0.37,8.51,0.46,9.93c-0.56,0.7-1.39,2.07-0.98,3.71c0.42,1.66,1.96,2.94,3.86,3.34
		c-0.42,1.55-1.21,2.98-2.3,4.17c-0.68,0.75-1.49,1.41-2.39,1.97l-0.96,0.59l0.89,0.68c1.94,1.49,2.26,4.21,0.69,5.94
		c-1.44,1.58-4.02,1.91-6,0.77l-1.14-0.66l-0.19,1.22c-0.13,0.86-0.5,2.08-1.51,3.01c-1.27,1.17-3.39,1.78-5.53,1.59
		c-1.9-0.17-3.49-0.95-4.37-2.15c-1.72-2.35-0.22-5.55-0.15-5.68l0.67-1.39l-1.63,0.29c-0.3,0.05-2.94,0.47-4.59-0.97
		c-1.68-1.47-2.04-4.67,0.3-7.29l0.57-0.64l-0.71-0.5c-1.5-1.06-3.53-2.92-4.67-5.73c-2.25-5.62,0.85-10.76,1.5-11.74l0.4-0.6
		l-0.59-0.44c-1.97-1.46-2.7-3.87-1.81-6.01c0.85-2.05,3.02-3.38,5.41-3.37c1.42,3.9,5.21,5.93,6.44,6.5l0.79-1.42
		c-1.17-0.54-5.03-2.61-5.87-6.6c-0.24-1.13-0.21-2.31,0.1-3.49l0.26-1.03l-1.15,0.06c-2.07,0.09-3.94-1.04-4.45-2.7
		c-0.6-1.95,1.07-3.61,1.08-3.62l0.65-0.63l-0.74-0.54c-3.75-2.74-5.02-7.53-3.03-11.39c2.31-4.49,8.01-6.04,11.96-4.92
		c1.66,0.47,3.18,1.46,4.4,2.84l0.98,1.12l0.52-1.35c0.3-0.8,1.05-2.23,2.61-2.92C242.97,317.67,244.31,317.75,245.4,317.81z
		 M256.09,386.63c2.31,3.63,6.58,5.94,11.04,6.1c-0.49,1.12-0.93,2.87-0.14,4.66c0.29,0.67,0.72,1.26,1.24,1.78
		c0.15,0.99,0.38,3.93-1.75,6.39c-0.87,0.99-2.03,1.8-3.36,2.31l-1.46,0.57l1.31,0.82c0.13,0.08,1.23,0.8,1.25,2.04
		c0.02,1.02-0.7,1.98-1.8,2.4l-1.13,0.44l0.83,0.83c2.77,2.79,4.25,6.4,4.05,9.9c-0.15,2.73-1.33,5.19-3.23,6.75
		c-2.03,1.66-5.23,2.63-8.16,2.48c-1.67-0.09-4.04-0.58-5.8-2.4c-2.21-2.3-2.67-6.01-1.15-9.45l0.26-0.6l-0.59-0.36
		c-1.23-0.75-2.91-2.1-3.96-4.28c-1.64-3.41-0.64-6.6-0.13-7.81l0.3-0.72l-0.77-0.3c-1.18-0.47-5.17-2.32-6.91-6.52
		c-0.92-2.22-0.88-4.3-0.66-5.74c0.43,0.09,0.87,0.16,1.32,0.21c2.65,0.23,5.3-0.56,6.93-2.06c0.82-0.75,1.41-1.72,1.76-2.84
		c2.52,0.91,5.43,0.31,7.17-1.61c1.98-2.17,1.86-5.34-0.13-7.48c0.7-0.51,1.34-1.08,1.9-1.7c0-0.01,0.01-0.01,0.01-0.02
		C254.31,382.32,254.72,384.48,256.09,386.63z M180.89,402.61c3.27-0.71,5.93-2.96,7.03-5.85c2.68,1.22,5.72,1.49,8.51,0.71
		c2.64-0.74,4.74-2.32,5.73-4.34c1.26-2.55,0.76-5.72-1.14-8.34c3.09-0.78,6.26-1.11,9.42-0.99c1.77,0.07,3.56,0.28,5.3,0.63
		l0.64,0.13l0.31-0.52c0.43-0.73,1.45-2.07,3.35-2.89c1.42-0.61,2.77-0.69,3.76-0.61c-0.27,2,0.33,3.97,1.82,5.26
		c1.47,1.28,3.38,1.52,4.69,1.5c-0.43,1.45-0.77,3.9,0.76,5.98c0.65,0.88,1.56,1.59,2.65,2.08c-0.34,1.79-0.39,4.22,0.7,6.86
		c1.69,4.08,5.14,6.18,7.11,7.1c-0.58,1.71-1.22,4.92,0.42,8.33c0.41,0.85,0.9,1.58,1.42,2.22c-1.84,0.11-3.33-0.69-4.04-1.18
		l-1.11-0.75l-0.26,1.25c-0.3,1.43-1.05,3.47-2.94,4.98c-3.33,2.66-8.77,2.71-13.53,0.13l-1.23-0.67l-0.08,1.31
		c-0.02,0.34-0.2,2.12-1.79,3.18c-1.48,0.99-3.62,0.98-5.31-0.02l-0.68-0.41l-0.49,0.61c-0.04,0.05-4.19,5.16-11.03,4.53
		c-6.76-0.62-9.67-6.11-9.79-6.34l-0.4-0.79l-0.82,0.44c-0.02,0.01-0.03,0.02-0.05,0.03l-0.12-0.27c-1.63,0.88-3.35,1.43-5.12,1.66
		c-0.9,0.11-1.82,0.23-2.74,0.21h-0.02c-0.66-0.07-1.31-0.2-1.95-0.38c0.01,0.03,0.03,0.06,0.04,0.09
		c-0.51-0.15-1.01-0.38-1.52-0.69c-0.89-0.56-2.99-2.17-3.44-5.08c-0.26-1.68,0.15-3.12,0.47-3.91c0.18-0.32,0.38-0.64,0.6-0.96
		c0.57-0.81,1.26-1.57,2.08-2.28l0.61-0.53l-0.55-0.58c-1.23-1.29-2.85-3.47-3.58-6.46c-0.41-1.66-0.49-3.36-0.26-5.06
		C176.31,402.84,178.63,403.1,180.89,402.61z M280.72,344.49c-6.13-0.57-11.73,2-13.72,6.33c-1.2,2.6-0.79,5.17-0.21,6.92
		c-0.52,2.89-0.3,5.65,0.66,8.21c2.86,7.59,12.78,14.21,22.99,11.95c7.35-1.62,11.27-7.2,12.7-9.72c0.9,0.66,2.39,1.42,4.32,1.39
		c1.09-0.03,2-0.3,2.73-0.63c0.34,3.86,3.12,7.18,6.92,8.06c3.48,0.8,6.42-0.76,7.8-1.69c2.3,1.6,4.84,2.72,7.41,3.29
		c-0.34,0.44-0.85,0.93-1.6,1.3c-1.43,0.68-2.8,0.44-3.33,0.31l-1.36-0.35l0.28,1.27c0.4,1.83-0.46,3.73-2.13,4.73
		c-1.8,1.07-4.22,0.92-5.9-0.36l-0.75-0.57l-0.54,0.75c-1.76,2.48-5.07,3.59-7.87,2.62c-2.17-0.75-3.73-2.63-4.07-4.91l-0.39-2.58
		l-1.26,2.33c-1.65,3.07-5.19,4.91-8.8,4.59c-3.25-0.29-6.05-2.25-7.31-5.11l-1.26-2.86l-0.41,3.06c-0.01,0.13-0.45,3.13-3.39,4.43
		c-2.35,1.04-4.63,0.24-5.06,0.07l-0.57-0.23l-0.42,0.43c-1.14,1.17-3.61,3.2-7.32,3.6c-4.44,0.47-8.97-1.64-11.26-5.26
		c-3.35-5.28,0-10.8,0.03-10.85l0.8-1.28l-1.6,0.09c-1.76,0.1-3.34-0.86-3.69-2.23c-0.36-1.45,0.91-2.66,0.96-2.71l0.49-0.46
		l-0.38-0.54c-0.13-0.18-3.05-4.36-0.68-8.88c2.15-4.1,6.79-4.9,7.31-4.98l0.81-0.12l-0.09-0.75c-0.06-0.53-0.48-5.28,3.42-8.53
		c3.16-2.63,7.85-3.26,11.96-1.61l0.56,0.22l0.42-0.4c0.74-0.71,2.33-1.92,4.63-2.12c2.48-0.22,4.46,0.87,5.68,1.84
		C285.84,342.16,283.14,342.85,280.72,344.49z"/>
	<path class="st0" d="M368.39,257.77H135.61c-2.55,0-4.62,2.07-4.62,4.62v19.58c0,2.55,2.07,4.62,4.62,4.62h232.79
		c2.55,0,4.62-2.08,4.62-4.62v-19.58C373.02,259.84,370.94,257.77,368.39,257.77z"/>
</g>
</svg>
